<?xml version="1.0" encoding="UTF-8"?>
<svg xmlns="http://www.w3.org/2000/svg" xmlns:xlink="http://www.w3.org/1999/xlink" width="10px" height="10px" viewBox="0 0 10 10" version="1.1">
<g id="surface1">
<path style="fill:none;stroke-width:2;stroke-linecap:round;stroke-linejoin:round;stroke:rgb(0%,0%,0%);stroke-opacity:1;stroke-miterlimit:4;" d="M 10.003125 6 L 10.003125 4.003125 M 13.996875 6 L 13.996875 4.003125 M 13.996875 6 L 7.003125 6 M 13.996875 6 C 15.65625 6 16.996875 7.340625 16.996875 9 C 16.996875 10.659375 15.65625 12 13.996875 12 M 9 18 L 9 12 M 9 6 L 9 12 M 10.003125 19.996875 L 10.003125 18 M 13.996875 19.996875 L 13.996875 18 M 9 12 L 15 12 C 16.659375 12 18 13.340625 18 15 C 18 16.659375 16.659375 18 15 18 L 7.003125 18 " transform="matrix(0.416667,0,0,0.416667,0,0)"/>
</g>
</svg>
