<?xml version="1.0" encoding="UTF-8"?>
<svg xmlns="http://www.w3.org/2000/svg" xmlns:xlink="http://www.w3.org/1999/xlink" width="16px" height="16px" viewBox="0 0 16 16" version="1.1">
<g id="surface1">
<path style=" stroke:none;fill-rule:evenodd;fill:rgb(0%,0%,0%);fill-opacity:1;" d="M 3.617188 4.40625 L 4.933594 6.6875 C 5.445312 5.5 6.625 4.667969 8 4.667969 L 12.585938 4.667969 C 11.554688 3.253906 9.882812 2.332031 8 2.332031 C 6.234375 2.332031 4.65625 3.140625 3.617188 4.40625 Z M 13.304688 6 L 10.667969 6 C 11.085938 6.558594 11.332031 7.25 11.332031 8 C 11.332031 8.605469 11.171875 9.175781 10.886719 9.667969 L 8.597656 13.636719 C 11.445312 13.335938 13.667969 10.925781 13.667969 8 C 13.667969 7.296875 13.539062 6.621094 13.304688 6 Z M 7.082031 13.59375 L 8.402344 11.308594 C 8.269531 11.324219 8.136719 11.332031 8 11.332031 C 6.765625 11.332031 5.6875 10.664062 5.113281 9.667969 C 5.113281 9.664062 5.109375 9.664062 5.109375 9.660156 L 2.820312 5.695312 C 2.507812 6.398438 2.332031 7.179688 2.332031 8 C 2.332031 10.816406 4.390625 13.15625 7.082031 13.59375 Z M 6.269531 9 C 6.613281 9.597656 7.261719 10 8 10 C 8.738281 10 9.386719 9.597656 9.730469 9 C 9.902344 8.707031 10 8.367188 10 8 C 10 6.894531 9.105469 6 8 6 C 6.894531 6 6 6.894531 6 8 C 6 8.363281 6.097656 8.703125 6.265625 8.992188 C 6.265625 8.996094 6.265625 9 6.269531 9 Z M 2.273438 3.972656 C 3.539062 2.175781 5.632812 1 8 1 C 10.816406 1 13.238281 2.660156 14.351562 5.054688 C 14.769531 5.949219 15 6.949219 15 8 C 15 11.867188 11.867188 15 8 15 C 7.792969 15 7.585938 14.992188 7.382812 14.972656 C 3.804688 14.660156 1 11.65625 1 8 C 1 6.5 1.472656 5.113281 2.273438 3.972656 Z M 2.273438 3.972656 "/>
</g>
</svg>
