<?xml version="1.0" encoding="UTF-8"?>
<svg xmlns="http://www.w3.org/2000/svg" xmlns:xlink="http://www.w3.org/1999/xlink" width="16px" height="16px" viewBox="0 0 16 16" version="1.1">
<g id="surface1">
<path style=" stroke:none;fill-rule:nonzero;fill:rgb(0%,0%,0%);fill-opacity:1;" d="M 1.332031 2.667969 L 7.332031 2.667969 L 7.332031 3.332031 L 2 3.332031 L 2 13.332031 L 7.332031 13.332031 L 7.332031 14 L 1.332031 14 Z M 8 15.332031 L 8.667969 15.332031 L 8.667969 1.332031 L 8 1.332031 Z M 5.523438 6.855469 L 5.144531 6.476562 L 3.289062 8.332031 L 5.144531 10.1875 L 5.523438 9.8125 L 4.378906 8.667969 L 7.332031 8.667969 L 7.332031 8 L 4.378906 8 Z M 9.332031 8 L 12.054688 8 L 11.027344 6.972656 L 11.640625 6.359375 L 13.613281 8.332031 L 11.640625 10.308594 L 11.027344 9.691406 L 12.054688 8.667969 L 9.332031 8.667969 L 9.332031 14 L 15.332031 14 L 15.332031 2.667969 L 9.332031 2.667969 Z M 9.332031 8 "/>
</g>
</svg>
