<?xml version="1.0" encoding="UTF-8"?>
<svg xmlns="http://www.w3.org/2000/svg" xmlns:xlink="http://www.w3.org/1999/xlink" width="10px" height="10px" viewBox="0 0 10 10" version="1.1">
<g id="surface1">
<rect x="0" y="0" width="10" height="10" style="fill:rgb(100%,100%,100%);fill-opacity:1;stroke:none;"/>
<path style=" stroke:none;fill-rule:evenodd;fill:rgb(19.607843%,19.607843%,19.607843%);fill-opacity:1;" d="M 5.199219 0.832031 C 5.484375 0.832031 5.734375 0.832031 5.964844 0.929688 C 6.199219 1.023438 6.375 1.203125 6.574219 1.402344 C 6.972656 1.800781 7.367188 2.195312 7.765625 2.589844 C 7.964844 2.792969 8.140625 2.96875 8.238281 3.199219 C 8.335938 3.433594 8.332031 3.683594 8.332031 3.964844 C 8.332031 5.015625 8.332031 6.0625 8.332031 7.109375 C 8.332031 7.480469 8.332031 7.796875 8.300781 8.054688 C 8.261719 8.328125 8.179688 8.589844 7.96875 8.800781 C 7.753906 9.011719 7.492188 9.097656 7.21875 9.132812 C 6.964844 9.167969 6.648438 9.167969 6.277344 9.167969 L 3.722656 9.167969 C 3.351562 9.167969 3.035156 9.167969 2.78125 9.132812 C 2.507812 9.097656 2.246094 9.011719 2.03125 8.800781 C 1.820312 8.589844 1.738281 8.328125 1.699219 8.054688 C 1.667969 7.796875 1.667969 7.480469 1.667969 7.109375 L 1.667969 2.917969 C 1.667969 2.90625 1.667969 2.898438 1.667969 2.890625 C 1.667969 2.519531 1.667969 2.203125 1.699219 1.945312 C 1.738281 1.671875 1.820312 1.410156 2.03125 1.199219 C 2.246094 0.988281 2.507812 0.902344 2.78125 0.867188 C 3.035156 0.832031 3.351562 0.832031 3.722656 0.832031 C 4.214844 0.832031 4.707031 0.835938 5.199219 0.832031 Z M 6.542969 4.707031 C 6.707031 4.867188 6.707031 5.132812 6.542969 5.292969 L 5.054688 6.785156 C 4.792969 7.046875 4.371094 7.046875 4.113281 6.785156 L 3.457031 6.128906 C 3.292969 5.964844 3.292969 5.703125 3.457031 5.539062 C 3.617188 5.375 3.882812 5.375 4.042969 5.539062 L 4.582031 6.078125 L 5.957031 4.707031 C 6.117188 4.542969 6.382812 4.542969 6.542969 4.707031 Z M 6.542969 4.707031 "/>
</g>
</svg>
