<?xml version="1.0" encoding="UTF-8"?>
<svg xmlns="http://www.w3.org/2000/svg" xmlns:xlink="http://www.w3.org/1999/xlink" width="16px" height="16px" viewBox="0 0 16 16" version="1.1">
<g id="surface1">
<path style=" stroke:none;fill-rule:nonzero;fill:rgb(0%,0%,0%);fill-opacity:1;" d="M 11.121094 0 L 3.066406 0 C 2.527344 0 2.085938 0.441406 2.085938 0.980469 L 2.085938 15.019531 C 2.085938 15.558594 2.527344 16 3.066406 16 L 12.933594 16 C 13.472656 16 13.914062 15.558594 13.914062 15.019531 L 13.914062 3.035156 Z M 11.351562 1.46875 L 12.578125 2.796875 L 11.351562 2.796875 Z M 13.089844 15.019531 C 13.089844 15.105469 13.019531 15.175781 12.929688 15.175781 L 3.066406 15.175781 C 2.980469 15.175781 2.910156 15.105469 2.910156 15.019531 L 2.910156 0.980469 C 2.910156 0.894531 2.980469 0.824219 3.066406 0.824219 L 10.527344 0.824219 L 10.527344 3.210938 C 10.527344 3.4375 10.714844 3.621094 10.941406 3.621094 L 13.089844 3.621094 Z M 4.789062 4.296875 L 12.257812 4.296875 L 12.257812 4.707031 L 4.789062 4.707031 L 4.789062 6.832031 L 12.257812 6.832031 L 12.257812 7.246094 L 4.789062 7.246094 L 4.789062 9.304688 L 12.257812 9.304688 L 12.257812 9.714844 L 4.789062 9.714844 L 4.789062 11.652344 L 12.257812 11.652344 L 12.257812 12.0625 L 4.789062 12.0625 L 4.789062 13.214844 L 4.378906 13.214844 L 4.378906 12.0625 L 3.625 12.0625 L 3.625 11.652344 L 4.378906 11.652344 L 4.378906 9.714844 L 3.625 9.714844 L 3.625 9.304688 L 4.378906 9.304688 L 4.378906 7.246094 L 3.625 7.246094 L 3.625 6.832031 L 4.378906 6.832031 L 4.378906 4.707031 L 3.625 4.707031 L 3.625 4.296875 L 4.378906 4.296875 L 4.378906 2.921875 L 4.789062 2.921875 Z M 4.789062 4.296875 "/>
</g>
</svg>
