<?xml version="1.0" encoding="UTF-8"?>
<svg xmlns="http://www.w3.org/2000/svg" xmlns:xlink="http://www.w3.org/1999/xlink" width="16px" height="16px" viewBox="0 0 16 16" version="1.1">
<g id="surface1">
<path style=" stroke:none;fill-rule:nonzero;fill:rgb(0%,0%,0%);fill-opacity:1;" d="M 9.914062 5.960938 C 9.882812 5.371094 9.761719 4.792969 9.558594 4.214844 C 9.269531 3.382812 9.125 2.808594 9.125 2.492188 C 9.125 2.050781 9.226562 1.714844 9.429688 1.488281 C 9.644531 1.257812 9.902344 1.144531 10.207031 1.144531 C 10.472656 1.144531 10.703125 1.257812 10.898438 1.488281 C 11.09375 1.714844 11.191406 2.042969 11.191406 2.46875 C 11.191406 2.851562 11.074219 3.386719 10.847656 4.074219 C 10.625 4.753906 10.488281 5.382812 10.4375 5.960938 C 10.90625 5.660156 11.324219 5.300781 11.699219 4.875 C 12.277344 4.203125 12.707031 3.789062 12.988281 3.628906 C 13.265625 3.464844 13.550781 3.386719 13.839844 3.386719 C 14.121094 3.386719 14.355469 3.484375 14.539062 3.679688 C 14.734375 3.863281 14.832031 4.089844 14.832031 4.355469 C 14.832031 4.667969 14.695312 4.949219 14.414062 5.195312 C 14.132812 5.441406 13.433594 5.6875 12.3125 5.933594 C 11.65625 6.078125 11.113281 6.242188 10.679688 6.429688 C 11.121094 6.660156 11.660156 6.832031 12.296875 6.953125 C 13.324219 7.140625 13.996094 7.375 14.3125 7.652344 C 14.632812 7.933594 14.796875 8.238281 14.796875 8.570312 C 14.796875 8.824219 14.699219 9.046875 14.503906 9.234375 C 14.316406 9.421875 14.09375 9.515625 13.839844 9.515625 C 13.585938 9.515625 13.300781 9.425781 12.988281 9.246094 C 12.679688 9.066406 12.265625 8.667969 11.738281 8.046875 C 11.390625 7.632812 10.957031 7.242188 10.4375 6.875 C 10.457031 7.359375 10.554688 7.886719 10.730469 8.457031 C 11.035156 9.457031 11.191406 10.140625 11.191406 10.507812 C 11.191406 10.847656 11.089844 11.136719 10.882812 11.375 C 10.679688 11.601562 10.464844 11.71875 10.234375 11.71875 C 9.921875 11.71875 9.636719 11.59375 9.378906 11.347656 C 9.203125 11.171875 9.113281 10.886719 9.113281 10.496094 C 9.113281 10.085938 9.210938 9.597656 9.40625 9.03125 C 9.601562 8.453125 9.726562 8.058594 9.777344 7.84375 C 9.828125 7.625 9.875 7.300781 9.914062 6.875 C 9.414062 7.207031 8.976562 7.578125 8.601562 7.984375 C 7.984375 8.679688 7.515625 9.125 7.203125 9.308594 C 6.980469 9.445312 6.75 9.515625 6.515625 9.515625 C 6.226562 9.515625 5.980469 9.417969 5.773438 9.222656 C 5.570312 9.027344 5.46875 8.808594 5.46875 8.570312 C 5.46875 8.359375 5.554688 8.136719 5.722656 7.910156 C 5.902344 7.671875 6.164062 7.476562 6.515625 7.324219 C 6.742188 7.21875 7.265625 7.085938 8.082031 6.914062 C 8.609375 6.804688 9.121094 6.644531 9.621094 6.429688 C 9.164062 6.199219 8.617188 6.023438 7.980469 5.894531 C 6.933594 5.675781 6.289062 5.476562 6.042969 5.296875 C 5.660156 5.015625 5.46875 4.675781 5.46875 4.277344 C 5.46875 4.046875 5.5625 3.839844 5.75 3.652344 C 5.945312 3.457031 6.167969 3.359375 6.425781 3.359375 C 6.703125 3.359375 7.003906 3.449219 7.316406 3.628906 C 7.632812 3.804688 8.023438 4.167969 8.488281 4.710938 C 8.957031 5.246094 9.429688 5.660156 9.914062 5.960938 M 3.347656 10.492188 C 3.964844 10.492188 4.484375 10.707031 4.902344 11.140625 C 5.320312 11.558594 5.53125 12.070312 5.53125 12.675781 C 5.53125 13.277344 5.316406 13.796875 4.882812 14.226562 C 4.464844 14.648438 3.953125 14.855469 3.347656 14.855469 C 2.746094 14.855469 2.226562 14.648438 1.796875 14.226562 C 1.375 13.796875 1.167969 13.277344 1.167969 12.675781 C 1.167969 12.058594 1.375 11.539062 1.796875 11.121094 C 2.226562 10.699219 2.746094 10.492188 3.347656 10.492188 "/>
</g>
</svg>
