<?xml version="1.0" encoding="UTF-8"?>
<svg xmlns="http://www.w3.org/2000/svg" xmlns:xlink="http://www.w3.org/1999/xlink" width="16px" height="16px" viewBox="0 0 16 16" version="1.1">
<g id="surface1">
<path style="fill:none;stroke-width:1.5;stroke-linecap:round;stroke-linejoin:round;stroke:rgb(0%,0%,0%);stroke-opacity:1;stroke-miterlimit:4;" d="M 4.001953 10.001953 L 4.001953 6 C 4.001953 4.892578 4.892578 4.001953 6 4.001953 L 12 4.001953 M 4.025391 18.328125 C 4.183594 19.277344 5.009766 19.998047 6 19.998047 L 18 19.998047 C 19.107422 19.998047 19.998047 19.107422 19.998047 18 L 19.998047 14.191406 M 4.025391 18.328125 C 4.007812 18.222656 4.001953 18.111328 4.001953 18 L 4.001953 15 M 4.025391 18.328125 L 7.845703 14.507812 C 8.525391 13.916016 9.521484 13.845703 10.271484 14.349609 L 10.78125 14.689453 C 11.507812 15.169922 12.462891 15.128906 13.142578 14.583984 L 15.791016 12.46875 C 16.464844 11.929687 17.408203 11.882812 18.123047 12.345703 C 18.205078 12.398437 18.275391 12.462891 18.339844 12.527344 L 19.998047 14.191406 M 19.998047 14.191406 L 19.998047 6 C 19.998047 4.892578 19.107422 4.001953 18 4.001953 L 16.998047 4.001953 M 10.998047 9 C 10.998047 10.107422 10.107422 10.998047 9 10.998047 C 7.892578 10.998047 7.001953 10.107422 7.001953 9 C 7.001953 7.892578 7.892578 7.001953 9 7.001953 C 10.107422 7.001953 10.998047 7.892578 10.998047 9 Z M 10.998047 9 " transform="matrix(0.666667,0,0,0.666667,0,0)"/>
</g>
</svg>
