<?xml version="1.0" encoding="UTF-8"?>
<svg xmlns="http://www.w3.org/2000/svg" xmlns:xlink="http://www.w3.org/1999/xlink" width="16px" height="16px" viewBox="0 0 16 16" version="1.1">
<g id="surface1">
<path style=" stroke:none;fill-rule:nonzero;fill:rgb(0%,0%,0%);fill-opacity:1;" d="M 7.199219 6.632812 L 8 6.632812 L 8 8.246094 L 7.199219 8.246094 Z M 7.199219 6.632812 "/>
<path style=" stroke:none;fill-rule:nonzero;fill:rgb(0%,0%,0%);fill-opacity:1;" d="M 0.667969 5 L 0.667969 9.898438 L 4.734375 9.898438 L 4.734375 10.734375 L 8 10.734375 L 8 9.898438 L 15.332031 9.898438 L 15.332031 5 Z M 4.734375 9.066406 L 3.933594 9.066406 L 3.933594 6.632812 L 3.101562 6.632812 L 3.101562 9.066406 L 1.5 9.066406 L 1.5 5.832031 L 4.734375 5.832031 Z M 8.832031 9.066406 L 7.199219 9.066406 L 7.199219 9.898438 L 5.566406 9.898438 L 5.566406 5.832031 L 8.832031 5.832031 Z M 14.535156 9.066406 L 13.734375 9.066406 L 13.734375 6.632812 L 12.898438 6.632812 L 12.898438 9.066406 L 12.066406 9.066406 L 12.066406 6.632812 L 11.265625 6.632812 L 11.265625 9.066406 L 9.632812 9.066406 L 9.632812 5.832031 L 14.535156 5.832031 Z M 14.535156 9.066406 "/>
</g>
</svg>
