<?xml version="1.0" encoding="UTF-8"?>
<svg xmlns="http://www.w3.org/2000/svg" xmlns:xlink="http://www.w3.org/1999/xlink" width="16px" height="16px" viewBox="0 0 16 16" version="1.1">
<g id="surface1">
<path style="fill:none;stroke-width:2;stroke-linecap:round;stroke-linejoin:round;stroke:rgb(0%,0%,0%);stroke-opacity:1;stroke-miterlimit:4;" d="M 8.285156 21 C 15.832031 21 19.962891 14.455078 19.962891 8.789062 C 19.962891 8.601562 19.962891 8.419922 19.951172 8.232422 C 20.753906 7.623047 21.445312 6.873047 22.001953 6.017578 C 21.246094 6.357422 20.455078 6.591797 19.640625 6.697266 C 20.496094 6.158203 21.134766 5.314453 21.439453 4.318359 C 20.630859 4.822266 19.751953 5.173828 18.832031 5.355469 C 17.279297 3.621094 14.677734 3.539062 13.025391 5.173828 C 11.958984 6.216797 11.501953 7.78125 11.841797 9.275391 C 8.554687 9.099609 5.472656 7.464844 3.392578 4.787109 C 2.302734 6.744141 2.853516 9.257812 4.664062 10.511719 C 4.007812 10.494141 3.375 10.3125 2.800781 9.978516 C 2.800781 9.990234 2.800781 10.007812 2.800781 10.025391 C 2.800781 12.070312 4.177734 13.828125 6.09375 14.238281 C 5.490234 14.414062 4.857422 14.4375 4.242187 14.314453 C 4.775391 16.060547 6.322266 17.255859 8.074219 17.291016 C 6.615234 18.486328 4.822266 19.130859 2.976562 19.130859 C 2.648437 19.130859 2.320312 19.107422 1.998047 19.072266 C 3.878906 20.337891 6.058594 21 8.285156 21 Z M 8.285156 21 " transform="matrix(0.666667,0,0,0.666667,0,0)"/>
</g>
</svg>
